<svg width="51" height="50" viewBox="0 0 51 50" fill="none" xmlns="http://www.w3.org/2000/svg">
    <path fill-rule="evenodd" clip-rule="evenodd" d="M10.917 8.33366C9.7664 8.33366 8.83366 9.2664 8.83366 10.417V39.5837C8.83366 40.7342 9.7664 41.667 10.917 41.667H40.0837C41.2342 41.667 42.167 40.7342 42.167 39.5837V10.417C42.167 9.2664 41.2342 8.33366 40.0837 8.33366H10.917ZM4.66699 10.417C4.66699 6.96521 7.46521 4.16699 10.917 4.16699H40.0837C43.5354 4.16699 46.3337 6.96521 46.3337 10.417V39.5837C46.3337 43.0354 43.5354 45.8337 40.0837 45.8337H10.917C7.46521 45.8337 4.66699 43.0354 4.66699 39.5837V10.417Z" fill="#99A7C4"/>
    <path fill-rule="evenodd" clip-rule="evenodd" d="M18.2087 16.667C17.6334 16.667 17.167 17.1334 17.167 17.7087C17.167 18.284 17.6334 18.7503 18.2087 18.7503C18.784 18.7503 19.2503 18.284 19.2503 17.7087C19.2503 17.1334 18.784 16.667 18.2087 16.667ZM13.0003 17.7087C13.0003 14.8322 15.3322 12.5003 18.2087 12.5003C21.0851 12.5003 23.417 14.8322 23.417 17.7087C23.417 20.5851 21.0851 22.917 18.2087 22.917C15.3322 22.917 13.0003 20.5851 13.0003 17.7087Z" fill="#99A7C4"/>
    <path fill-rule="evenodd" clip-rule="evenodd" d="M32.3605 19.3605C33.1741 18.5469 34.4932 18.5469 35.3068 19.3605L45.7235 29.7772C46.5371 30.5908 46.5371 31.9099 45.7235 32.7235C44.9099 33.5371 43.5908 33.5371 42.7772 32.7235L33.8337 23.7799L12.3901 45.2235C11.5765 46.0371 10.2574 46.0371 9.44385 45.2235C8.63026 44.4099 8.63026 43.0908 9.44385 42.2772L32.3605 19.3605Z" fill="#99A7C4"/>
</svg>
