
<svg xmlns="http://www.w3.org/2000/svg" width="60" height="60" fill="none"><g clip-path="url(#a)"><circle cx="30" cy="30" r="30" fill="#fff"/><g clip-path="url(#b)"><path fill="#DFDEE8" d="m23.837 35.216.71 1.657 2.342 2.342 2.202-1.061-3.623-4.57-1.631 1.632Z"/><path fill="#DFDEE8" d="m21.845 30.91-1.061 2.202 2.341 2.342 1.184.236 1.632-1.631-4.096-3.149Z"/><path fill="#FF3226" d="m46.827 13.172-5.703 4.756 5.004 4.057a16.178 16.178 0 0 0 .699-8.813Z"/><path fill="#FF3226" d="M46.827 13.172a16.18 16.18 0 0 0-8.813.699l3.583 4.53 5.23-5.23ZM22.77 28.992l-4.665.422s1.868-9.653 10.291-7.292l-2.578 5.538-3.048 1.332ZM31.008 37.23l-.423 4.664s9.654-1.868 7.292-10.291L32.34 34.18l-1.333 3.048Z"/><path fill="url(#c)" d="m46.13 21.984-4.058-4.056-16.13 15.183 5.065 4.119 10.204-8.358a16.178 16.178 0 0 0 4.918-6.888Z"/><path fill="url(#d)" d="m42.072 17.929-4.057-4.057a16.176 16.176 0 0 0-6.887 4.918L22.77 28.994l3.645 4.592 15.657-15.657Z"/><path fill="#283D66" d="m39.73 20.269-3.091 2.144-2.144 3.091a3.706 3.706 0 0 0 5.235 0 3.706 3.706 0 0 0 0-5.235Z"/><path fill="#283D66" d="M34.495 20.27a3.706 3.706 0 0 0 0 5.235l5.236-5.235a3.706 3.706 0 0 0-5.236 0Z"/><path fill="#FDD33F" d="M38.31 24.084c.66-.66.66-1.734 0-2.394l-1.67.724-.724 1.67c.66.66 1.734.66 2.394 0Z"/><path fill="#FDD33F" d="M35.914 21.69c-.66.66-.66 1.734 0 2.394l2.395-2.394a1.695 1.695 0 0 0-2.395 0Z"/><path fill="#B9B8C7" d="m25.467 34.532 3.622 3.622 1.917-.924-4.119-4.119-1.184.237-.236 1.184Z"/><path fill="#B9B8C7" d="m26.89 33.112-4.12-4.119-.923 1.917 3.622 3.622 1.42-1.42Z"/><path fill="#FF3226" d="m24.547 36.873 9.08-9.08-.71-.71-5.014 4.067-4.066 5.013.71.71Z"/><path fill="#FF3226" d="m23.123 35.452 9.078-9.078.71.71-9.078 9.078-.71-.71Z"/><path fill="#FDD33F" d="M20.375 43.5a.447.447 0 0 1-.009.228.619.619 0 0 1-.316.379l-6.789 3.204a.37.37 0 0 1-.253.031.263.263 0 0 1-.172-.146.404.404 0 0 1-.02-.262v-.001a.617.617 0 0 1 .143-.267l2.813-3.135-1.106-.82a.283.283 0 0 1-.104-.162.443.443 0 0 1 .006-.224.612.612 0 0 1 .307-.38l6.61-3.335a.383.383 0 0 1 .252-.04c.078.017.14.064.178.134.038.07.05.159.032.253a.605.605 0 0 1-.128.27L19.145 42.5l1.126.835a.283.283 0 0 1 .104.164ZM19.039 37.6a.278.278 0 0 1 .002.147.344.344 0 0 1-.196.232l-4.398 1.811a.246.246 0 0 1-.168.01.202.202 0 0 1-.12-.1.26.26 0 0 1-.022-.168v-.001a.342.342 0 0 1 .085-.167l1.756-1.912-.766-.568a.212.212 0 0 1-.075-.108.276.276 0 0 1-.004-.143.341.341 0 0 1 .19-.233l4.275-1.903a.25.25 0 0 1 .166-.016.202.202 0 0 1 .123.092.253.253 0 0 1 .03.164.338.338 0 0 1-.074.169l-1.66 2.007.78.578a.21.21 0 0 1 .076.11ZM24.023 45.555c.047.007.097 0 .145-.02a.343.343 0 0 0 .199-.23l1.112-4.624a.247.247 0 0 0-.015-.167.202.202 0 0 0-.117-.104.26.26 0 0 0-.172.005.342.342 0 0 0-.151.109l-1.62 2.03-.678-.67a.21.21 0 0 0-.118-.057.276.276 0 0 0-.143.018.34.34 0 0 0-.2.224l-1.222 4.517a.252.252 0 0 0 .009.166c.021.05.06.087.11.108.05.02.11.022.167.005a.337.337 0 0 0 .155-.1l1.728-1.949.691.681a.211.211 0 0 0 .12.058Z"/></g></g><defs><linearGradient id="c" x1="27.533" x2="47.635" y1="2.739" y2="8.406" gradientUnits="userSpaceOnUse"><stop stop-color="#2EB4FF"/><stop offset="1" stop-color="#4E32FB"/></linearGradient><linearGradient id="d" x1="27.533" x2="47.635" y1="2.739" y2="8.406" gradientUnits="userSpaceOnUse"><stop stop-color="#2EB4FF"/><stop offset="1" stop-color="#4E32FB"/></linearGradient><clipPath id="a"><path fill="#fff" d="M0 0h60v60H0z"/></clipPath><clipPath id="b"><path fill="#fff" d="M12.857 12.857h34.286v34.286H12.857z"/></clipPath></defs></svg>