<svg width="136" height="32" xmlns="http://www.w3.org/2000/svg" fill="none" viewBox="0 0 137 32">
  <path fill="#282F3D"
    d="M47.82 24a.56.56 0 0 1-.41-.16.56.56 0 0 1-.17-.41V11.1h-4.18a.53.53 0 0 1-.4-.16.53.53 0 0 1-.15-.4V8.48c0-.17.05-.31.16-.42.1-.1.23-.16.39-.16H55.1c.17 0 .3.05.41.16.11.1.16.25.16.41v2.07c0 .16-.05.29-.16.4-.1.1-.24.16-.41.16h-4.16v12.33c0 .16-.06.3-.16.4a.54.54 0 0 1-.42.17h-2.55Zm13.1.23a5.9 5.9 0 0 1-4.22-1.47c-1.02-.98-1.57-2.4-1.63-4.28v-.98c.06-1.19.33-2.2.8-3.04a4.73 4.73 0 0 1 2-1.96 6.29 6.29 0 0 1 3.02-.69c1.29 0 2.36.27 3.22.8a4.85 4.85 0 0 1 1.96 2.17 7 7 0 0 1 .66 3.13v.52a.5.5 0 0 1-.18.4c-.1.1-.24.16-.4.16h-7.51v.18c.01.5.1.94.27 1.36.19.4.44.72.76.96.34.25.74.37 1.2.37.38 0 .7-.05.94-.16.25-.1.45-.24.6-.4.17-.14.29-.27.37-.38a.9.9 0 0 1 .32-.28c.1-.04.23-.07.41-.07h2.4a.5.5 0 0 1 .36.14c.11.08.16.2.14.35-.01.24-.14.55-.39.92-.23.35-.58.7-1.04 1.05-.46.34-1.03.63-1.72.86-.67.22-1.46.34-2.35.34Zm-2.28-7.34h4.5v-.04c0-.55-.09-1.03-.27-1.43a2.09 2.09 0 0 0-.76-.96 2.11 2.11 0 0 0-1.22-.35c-.47 0-.88.12-1.22.35-.34.22-.6.55-.78.96-.17.4-.25.88-.25 1.43v.04ZM69.58 24a.53.53 0 0 1-.39-.16.56.56 0 0 1-.16-.41V12.62a.6.6 0 0 1 .16-.42c.11-.1.24-.16.4-.16h2.25c.17 0 .3.05.41.16.1.1.16.25.16.42v.9a4.73 4.73 0 0 1 3.84-1.71c.9 0 1.7.2 2.37.62.7.4 1.23.99 1.61 1.77a6 6 0 0 1 .6 2.8v6.43a.5.5 0 0 1-.18.4.5.5 0 0 1-.4.17h-2.43a.56.56 0 0 1-.42-.16.56.56 0 0 1-.16-.41v-6.28c0-.82-.2-1.45-.6-1.89-.38-.46-.95-.69-1.7-.69-.72 0-1.3.23-1.72.69a2.6 2.6 0 0 0-.65 1.89v6.28c0 .16-.05.3-.16.4a.48.48 0 0 1-.39.17h-2.44Zm20.65.23a8.6 8.6 0 0 1-3.68-.71c-1-.5-1.77-1.2-2.32-2.12a7.26 7.26 0 0 1-.92-3.4 83.46 83.46 0 0 1 0-4.1c.06-1.32.37-2.44.92-3.36a5.52 5.52 0 0 1 2.37-2.13 8.26 8.26 0 0 1 3.63-.74c1.03 0 1.97.13 2.81.4.84.25 1.57.63 2.18 1.12a5.09 5.09 0 0 1 1.98 3.93c0 .14-.05.25-.16.35a.45.45 0 0 1-.34.13h-2.63a.65.65 0 0 1-.43-.13.93.93 0 0 1-.26-.46c-.23-.9-.6-1.53-1.15-1.87a3.7 3.7 0 0 0-2-.5c-.95 0-1.7.26-2.25.78s-.85 1.39-.9 2.6a54.1 54.1 0 0 0 0 3.86c.05 1.21.35 2.08.9 2.6s1.3.78 2.25.78c.8 0 1.47-.17 2-.5.56-.36.94-.98 1.15-1.87.07-.23.15-.38.26-.46.1-.09.25-.13.43-.13h2.63c.13 0 .25.04.34.13.1.1.16.21.16.35a5.22 5.22 0 0 1-1.98 3.93c-.6.5-1.34.87-2.18 1.13-.84.26-1.78.39-2.8.39Zm9.88-.23a.56.56 0 0 1-.42-.16.56.56 0 0 1-.16-.41V8.24c0-.16.06-.3.16-.4a.54.54 0 0 1 .42-.17h2.48c.16 0 .29.05.4.16.1.1.16.25.16.41v5.18a4.59 4.59 0 0 1 3.67-1.61c.91 0 1.7.2 2.4.62.7.4 1.25.99 1.65 1.77a6 6 0 0 1 .6 2.8v6.43c0 .16-.05.3-.16.4a.52.52 0 0 1-.41.17h-2.51a.53.53 0 0 1-.4-.16.56.56 0 0 1-.15-.41v-6.28c0-.82-.2-1.45-.6-1.89-.4-.46-.97-.69-1.7-.69-.72 0-1.3.23-1.75.69a2.6 2.6 0 0 0-.65 1.89v6.28c0 .16-.05.3-.16.4a.48.48 0 0 1-.39.17h-2.48Zm17.63.23c-.81 0-1.54-.15-2.18-.46a4.12 4.12 0 0 1-1.54-1.29 3.02 3.02 0 0 1-.58-1.8 3 3 0 0 1 1.31-2.57 8.25 8.25 0 0 1 3.5-1.29l3.01-.43v-.42c0-.6-.14-1.06-.41-1.38-.28-.32-.76-.48-1.45-.48-.5 0-.91.1-1.22.3-.3.2-.55.46-.71.78a.6.6 0 0 1-.53.3h-2.19a.53.53 0 0 1-.39-.14.47.47 0 0 1-.11-.37c0-.26.1-.56.3-.92.2-.35.5-.7.92-1.03.4-.35.94-.64 1.58-.88a7.1 7.1 0 0 1 2.37-.34c.97 0 1.8.12 2.48.34a3.9 3.9 0 0 1 2.58 2.42c.2.54.3 1.12.3 1.75v7.1c0 .17-.05.31-.16.42-.1.1-.25.16-.42.16h-2.25a.53.53 0 0 1-.39-.16.56.56 0 0 1-.16-.41v-.86a3.69 3.69 0 0 1-2.03 1.43c-.45.15-1 .23-1.63.23Zm.92-2.4c.5 0 .96-.1 1.36-.31.4-.22.71-.55.94-1 .23-.44.35-1 .35-1.67v-.4l-2.14.35c-.83.14-1.44.35-1.82.62-.38.28-.57.62-.57 1.01 0 .3.08.55.25.76.18.22.42.38.71.49.3.1.6.16.92.16ZM133.22 24a5.8 5.8 0 0 1-2.43-.46 3.34 3.34 0 0 1-1.54-1.47 5.43 5.43 0 0 1-.51-2.49v-4.83h-1.8a.56.56 0 0 1-.4-.16.56.56 0 0 1-.17-.41v-1.56c0-.17.05-.31.16-.42a.6.6 0 0 1 .42-.16h1.79v-3.8c0-.16.05-.3.16-.4a.56.56 0 0 1 .41-.17h2.26c.17 0 .3.05.41.16.11.1.16.25.16.41v3.8h2.88c.15 0 .28.05.39.16.1.1.16.25.16.42v1.56c0 .17-.05.3-.16.41a.52.52 0 0 1-.4.16h-2.87v4.56c0 .58.1 1.04.3 1.38.22.32.59.48 1.1.48h1.69c.15 0 .28.05.39.16.1.1.16.24.16.4v1.7c0 .16-.06.3-.16.4a.5.5 0 0 1-.4.17h-2Z" />
  <path fill="#FFFFFF" d="M7.77 4.57h18.29v18.29H7.77z" />
  <path fill="#FC3234" fill-rule="evenodd"
    d="M28.04 1.47a43.8 43.8 0 0 0-22.53 0 6.72 6.72 0 0 0-4.86 5.2 35.21 35.21 0 0 0 0 13.5 6.72 6.72 0 0 0 4.86 5.2 43.8 43.8 0 0 0 13.7 1.41c.6-.03 1.19.16 1.65.55l5.43 4.6a.34.34 0 0 0 .55-.27v-5.33c0-.38.27-.72.64-.8l.56-.16a6.72 6.72 0 0 0 4.86-5.2c.87-4.45.87-9.04 0-13.5a6.72 6.72 0 0 0-4.86-5.2Zm-4.27 4.47c.5 0 .91.41.91.92v3.2c0 .5-.4.91-.91.91h-3.2c-.5 0-.92.41-.92.92v8.68c0 .5-.4.92-.91.92h-3.66a.92.92 0 0 1-.91-.92V11.9c0-.5-.41-.92-.91-.92h-3.2c-.5 0-.92-.4-.92-.91v-3.2c0-.5.41-.92.92-.92h13.7Z"
    clip-rule="evenodd" />
</svg>