<svg xmlns="http://www.w3.org/2000/svg" width="60" height="60" fill="none"><g clip-path="url(#a)"><g clip-path="url(#b)"><rect width="60" height="60" fill="#fff" rx="30"/><path fill="#F2F1F7" fill-rule="evenodd" d="M11.462 90.345S1.635 63.047 4.98 48.085c5.937-3.094 11.064-6.723 23.125-7.327 13.583-.678 26.537 6.666 26.537 6.666L52.83 69.907l-6.557 18.168s6.16 7.617-6.122 9.285c-8.556 1.161-21.698 2.255-27.154-.601-2.377-1.245-2.67-3.577-1.535-6.414Z" clip-rule="evenodd"/><path fill="#F2F1F7" fill-rule="evenodd" d="M6.176 49.543s-8.339 15.783-11.489 34.82c-.945 5.712 5.288 8.894 10.129 5.876 4.84-3.016 13.312-31.816 13.652-34.844.664-5.905-7.304-10.896-12.292-5.852Z" clip-rule="evenodd"/><g clip-path="url(#c)"><mask id="d" width="16" height="14" x="22" y="33" maskUnits="userSpaceOnUse" style="mask-type:luminance"><path fill="#fff" fill-rule="evenodd" d="M22.552 33.93H37.01V46.8H22.552V33.93Z" clip-rule="evenodd"/></mask><g mask="url(#d)"><path fill="#F4B784" fill-rule="evenodd" d="m37 39.33-.262-5.4H22.823l-.263 5.393c-.192 3.953 2.88 7.287 6.84 7.464l.195.008c4.183.148 7.61-3.29 7.406-7.464Z" clip-rule="evenodd"/></g><path fill="#FFC999" fill-rule="evenodd" d="M29.532 12.975c-7.22 0-10.905 6.276-9.641 13.595.62 3.598.597 3.527 1.417 7.108.373 1.629 3.882 6.92 8.779 6.92 4.578 0 7.898-5.161 8.27-6.827.785-3.509.828-3.588 1.303-7.2.97-7.365-2.422-13.596-9.642-13.596h-.486Z" clip-rule="evenodd"/><path fill="#DD936F" fill-rule="evenodd" d="M30.059 40.767c-2.477 0-4.481-1.334-5.727-2.453a.155.155 0 0 1 .206-.23c1.206 1.084 3.142 2.374 5.52 2.374 2.339 0 4.228-1.38 5.402-2.54a.154.154 0 1 1 .217.22c-1.215 1.199-3.176 2.629-5.618 2.629Z" clip-rule="evenodd"/><path fill="#DF9671" fill-rule="evenodd" d="M31.04 31.271H29.39a.309.309 0 1 1 0-.616h1.334l-.122-4.675a.313.313 0 0 1 .045-.167l.941-1.563a.308.308 0 0 1 .529.319l-.896 1.485.129 4.901a.31.31 0 0 1-.309.316" clip-rule="evenodd"/><path fill="#8C685C" fill-rule="evenodd" d="M27.657 24.955h-.026l-3.968-.32-.83.283a.308.308 0 1 1-.2-.583l.89-.304a.32.32 0 0 1 .125-.016l4.033.324a.31.31 0 0 1-.024.616M32.131 24.955a.309.309 0 0 1-.025-.616l4.033-.324a.317.317 0 0 1 .125.016l.891.304a.308.308 0 1 1-.2.583l-.83-.283-3.969.32h-.025" clip-rule="evenodd"/><path fill="#9A7266" fill-rule="evenodd" d="M35.015 27.058c0 .676-.414 1.223-.924 1.223s-.923-.547-.923-1.223c0-.675.413-1.222.923-1.222s.924.547.924 1.222M25.486 28.281c-.51 0-.923-.547-.923-1.223 0-.675.414-1.222.923-1.222.51 0 .924.547.924 1.222 0 .676-.413 1.223-.924 1.223Z" clip-rule="evenodd"/><path fill="#DF9671" fill-rule="evenodd" d="M30.957 35.736H29.28a.309.309 0 1 1 0-.616h1.677a.309.309 0 1 1 0 .616M31.518 33.631h-2.956a2.38 2.38 0 0 1-1.41-.458.307.307 0 0 1-.068-.43.31.31 0 0 1 .432-.069c.306.223.668.34 1.046.34h2.956c.427 0 .84-.123 1.197-.356a.309.309 0 0 1 .338.517 2.797 2.797 0 0 1-1.534.456" clip-rule="evenodd"/><path fill="#9E7D6C" fill-rule="evenodd" d="m38.097 22.626.674 1.027.684 3.51c.36-1.577.657-4.789.657-5.21 0-6.707-3.372-11.59-9.988-11.59-7.662 0-10.903 4.623-10.903 11.581 0 2.786.841 5.299.841 5.299l.401-3.59s.575-.912.614-1.053c.146-.526.253-2.65.746-4.691 0 0 5.223-2.28 9.544-.176 0 0 2.774-1.812 6.336.088.507 2.2.394 4.805.394 4.805Z" clip-rule="evenodd"/><path fill="#5C4E4A" fill-rule="evenodd" d="M19.299 22.925s-1.374-4.578-1.023-6.94c.204-1.374 2.417-4.004 3.507-5.018 1.276-1.186 2.215-1.936 4.442-2.916 3.974-1.75 6.313 1.4 6.313 1.4s3.857-2.917 8.65 5.833c.68 1.24-.058 4.316-1.154 7.948 0 0-1.622-1.094-3.025-4.506-2.038-4.96-5.699-1.05-5.699-1.05s-4.268-2.074-6.517-.817c-4.384 2.45-.935 3.558-5.494 6.066Z" clip-rule="evenodd"/><path fill="#4A3D39" fill-rule="evenodd" d="M31.19 17.773s-2.651-5.256-6.423-2.657c-1.296 1.18-2.563 2.259-2.828 4.695 1.65-3.278 5.185-3.042 9.25-2.038ZM37.377 19.632s-1.414-6.822-6.186-1.86c2.474-.62 4.684-.62 6.186 1.86Z" clip-rule="evenodd"/><path stroke="#253368" stroke-width="1.17" d="M18.638 25.154c-1.087-4.93-.368-14.792 11.197-14.792"/><path stroke="#253368" stroke-width="1.17" d="M40.952 25.153c1.086-4.93.367-14.791-11.198-14.791"/><path stroke="#253368" stroke-width=".501" d="M36.674 35.265c2.005 0 3.342-1.337 3.342-3.26"/><path fill="url(#e)" d="M16.649 28.567a3.347 3.347 0 0 1 2.714-3.876.251.251 0 0 1 .291.203l1.277 7.242a.251.251 0 0 1-.204.29 3.347 3.347 0 0 1-3.877-2.714l-.201-1.145Z"/><path fill="url(#f)" d="M42.804 28.567a3.347 3.347 0 0 0-2.715-3.877.251.251 0 0 0-.29.204l-1.278 7.242a.251.251 0 0 0 .204.29 3.347 3.347 0 0 0 3.877-2.714l.202-1.145Z"/><rect width="4.68" height="2.006" x="32.162" y="34.26" fill="url(#g)" rx="1.003"/></g><path fill="#597EF7" d="M8.292 53.908c.15.005.268.13.263.28-.08 2.605.009 5.438.249 8.464.387 4.876 1.15 10.085 2.18 15.39a178.008 178.008 0 0 0 1.582 7.328l.227.94c.098.4.192.778.281 1.13l.19.742.177.663a.271.271 0 0 1-.524.144l-.212-.803-.104-.402a144.05 144.05 0 0 1-.455-1.836 177.927 177.927 0 0 1-1.695-7.802c-1.034-5.324-1.8-10.552-2.188-15.451-.242-3.045-.33-5.897-.25-8.523a.272.272 0 0 1 .279-.264Z"/><path fill="#EDF1FB" fill-rule="evenodd" d="M45.52 63.017s-3.123-12.302 5.418-15.568C57.7 44.863 67.263 73.85 67.393 94.03c.086 13.147-2.396 31.206-2.396 31.206s-5.942 1.362-9.939-.604c.503-8.921-.262-28.228-1.498-34.595-1.237-6.366-8.04-27.021-8.04-27.021Z" clip-rule="evenodd"/><path fill="#FF3226" d="M20.175 48.45a5.879 5.879 0 0 0-3.297 0c-.362.106-.639.43-.71.832a6.157 6.157 0 0 0 0 2.163c.071.403.348.727.71.833.654.19 1.33.266 2.005.225a.326.326 0 0 1 .24.088l.796.735a.046.046 0 0 0 .053.008.054.054 0 0 0 .028-.05v-.853c0-.061.038-.115.093-.13l.082-.023c.363-.106.64-.43.712-.833a6.161 6.161 0 0 0 0-2.163c-.073-.402-.35-.726-.712-.832Z"/><path fill="#fff" d="M19.814 49.334a.148.148 0 0 0-.152-.144h-2.27a.148.148 0 0 0-.15.144v.502c0 .08.067.144.15.144h.53c.084 0 .151.064.151.144v1.363c0 .08.068.144.152.144h.605a.148.148 0 0 0 .151-.144v-1.364c0-.079.068-.143.152-.143h.53a.148.148 0 0 0 .15-.144v-.502Z"/></g></g><defs><linearGradient id="e" x1="16.14" x2="19.451" y1="21.457" y2="21.304" gradientUnits="userSpaceOnUse"><stop stop-color="#2EB4FF"/><stop offset="1" stop-color="#4E32FB"/></linearGradient><linearGradient id="f" x1="43.312" x2="40.001" y1="21.457" y2="21.304" gradientUnits="userSpaceOnUse"><stop stop-color="#2EB4FF"/><stop offset="1" stop-color="#4E32FB"/></linearGradient><linearGradient id="g" x1="33.116" x2="36.151" y1="33.304" y2="35.3" gradientUnits="userSpaceOnUse"><stop stop-color="#2EB4FF"/><stop offset="1" stop-color="#4E32FB"/></linearGradient><clipPath id="a"><path fill="#fff" d="M0 0h60v60H0z"/></clipPath><clipPath id="b"><rect width="60" height="60" fill="#fff" rx="30"/></clipPath><clipPath id="c"><path fill="#fff" d="M8.762 6.686h41.281v41.28H8.763z"/></clipPath></defs></svg>