<svg width="34" height="32" viewBox="-.5 0 34 32" xmlns="http://www.w3.org/2000/svg">
  <path fill="#FC3234" fill-rule="evenodd" clip-rule="evenodd"
    d="M27.66 1.45a43.22 43.22 0 0 0-22.22 0 6.63 6.63 0 0 0-4.8 5.13c-.85 4.4-.85 8.93 0 13.33a6.63 6.63 0 0 0 4.8 5.13 43.2 43.2 0 0 0 13.51 1.38c.6-.03 1.18.16 1.63.54l5.36 4.53a.33.33 0 0 0 .54-.25v-5.26c0-.38.26-.7.63-.8l.55-.14a6.63 6.63 0 0 0 4.8-5.13c.86-4.4.86-8.93 0-13.33a6.63 6.63 0 0 0-4.8-5.13Zm-4.21 4.41c.5 0 .9.4.9.9v3.16c0 .5-.4.9-.9.9h-3.16c-.5 0-.9.4-.9.9v8.58c0 .5-.4.9-.9.9h-3.6a.9.9 0 0 1-.91-.9v-8.57c0-.5-.4-.9-.9-.9H9.92a.9.9 0 0 1-.9-.9V6.76c0-.5.4-.9.9-.9h13.53Z" />
</svg>