<svg width="24" height="24" fill="none" xmlns="http://www.w3.org/2000/svg"><path fill-rule="evenodd" clip-rule="evenodd" d="M17.5 13c1.8 0 3.2 1.3 3.4 3H24v1h-3.1c-.2 1.7-1.7 3-3.4 3s-3.2-1.3-3.4-3H0v-1h14.1c.2-1.7 1.6-3 3.4-3Zm0 1c-1.4 0-2.5 1.1-2.5 2.5s1.1 2.5 2.5 2.5 2.5-1.1 2.5-2.5-1.1-2.5-2.5-2.5ZM6.5 4c1.7 0 3.2 1.3 3.4 3H24v1H9.9c-.2 1.7-1.7 3-3.4 3S3.3 9.7 3.1 8H0V7h3.1c.2-1.7 1.7-3 3.4-3Zm0 1C5.1 5 4 6.1 4 7.5S5.1 10 6.5 10 9 8.9 9 7.5 7.9 5 6.5 5Z" fill="#000" fill-opacity=".87"/></svg>